<svg width="16" height="16" viewBox="0 0 16 16" fill="none" xmlns="http://www.w3.org/2000/svg">
<path d="M13.6663 5.27751C13.6663 4.37177 13.385 3.64002 12.9189 3.13949C12.4566 2.64306 11.7754 2.3335 10.889 2.3335H5.1097C4.22658 2.3335 3.54488 2.64259 3.08171 3.13949C2.61489 3.6403 2.33301 4.37232 2.33301 5.27751V10.7228C2.33301 11.6286 2.61388 12.3603 3.07975 12.8608C3.5419 13.3573 4.22324 13.6668 5.1097 13.6668H10.8883C11.7751 13.6668 12.4566 13.3573 12.9189 12.8608C13.3851 12.3603 13.6663 11.6286 13.6663 10.7228V5.27751ZM14.6663 10.7228C14.6663 11.8351 14.3184 12.8255 13.6507 13.5425C12.9793 14.2633 12.022 14.6668 10.8883 14.6668H5.1097C3.97626 14.6668 3.01916 14.2634 2.34798 13.5425C1.68056 12.8255 1.33301 11.835 1.33301 10.7228V5.27751C1.33301 4.16469 1.68256 3.17453 2.35059 2.45784C3.02224 1.73733 3.9789 1.3335 5.1097 1.3335H10.889C12.0225 1.3335 12.98 1.73686 13.6514 2.45784C14.3189 3.1748 14.6663 4.16526 14.6663 5.27751V10.7228Z" fill="#F44336"/>
<path d="M7.49609 10.6667V8C7.49609 7.72386 7.71995 7.5 7.99609 7.5C8.27224 7.5 8.49609 7.72386 8.49609 8V10.6667C8.49609 10.9428 8.27224 11.1667 7.99609 11.1667C7.71995 11.1667 7.49609 10.9428 7.49609 10.6667Z" fill="#F44336"/>
<path d="M7.99935 4.80273C8.36754 4.80273 8.66602 5.10121 8.66602 5.4694C8.66602 5.83759 8.36754 6.13607 7.99935 6.13607H7.99284C7.62465 6.13607 7.32617 5.83759 7.32617 5.4694C7.32617 5.10121 7.62465 4.80273 7.99284 4.80273H7.99935Z" fill="#F44336"/>
</svg>
